<?xml version="1.0" encoding="UTF-8"?>

<svg t="1732890311265" class="icon" viewBox="0 0 1025 1024" version="1.1" xmlns="http://www.w3.org/2000/svg" p-id="2652" width="200" height="200"><path d="M512 93.090909c111.709091 0 216.436364 44.218182 295.563636 123.345455 162.909091 162.909091 162.909091 428.218182 0 593.454545C728.436364 886.690909 623.709091 930.909091 512 930.909091s-216.436364-44.218182-295.563636-123.345455c-162.909091-162.909091-162.909091-428.218182 0-593.454545C295.563636 137.309091 400.290909 93.090909 512 93.090909m0-93.090909C381.672727 0 249.018182 48.872727 148.945455 148.945455-48.872727 349.090909-48.872727 674.909091 148.945455 875.054545c100.072727 100.072727 232.727273 148.945455 363.054545 148.945455s262.981818-48.872727 363.054545-148.945455c200.145455-200.145455 200.145455-523.636364 0-723.781818C774.981818 48.872727 642.327273 0 512 0z" fill="#1D2633" p-id="2653"></path><path d="M733.090909 558.545455h-442.181818c-25.6 0-46.545455-20.945455-46.545455-46.545455s20.945455-46.545455 46.545455-46.545455h442.181818c25.6 0 46.545455 20.945455 46.545455 46.545455s-20.945455 46.545455-46.545455 46.545455z" fill="#176AFD" p-id="2654"></path></svg>